<svg id="_01-SINGLE-GREY" data-name="01-SINGLE-GREY" xmlns="http://www.w3.org/2000/svg" viewBox="0 0 36.67 36.67"><defs><style>.cls-1{fill:#888;}</style></defs><title>dribbble</title><path id="Dribbble" class="cls-1" d="M514,153.32a18.11,18.11,0,0,0-1.69-3.11,18.34,18.34,0,0,0-30.41,0,18.27,18.27,0,0,0-2.76,6.56,18.57,18.57,0,0,0,0,7.38,18.36,18.36,0,0,0,2.76,6.56,18.34,18.34,0,0,0,4.95,4.95,18.37,18.37,0,0,0,3.12,1.69,18.06,18.06,0,0,0,3.45,1.07,18.36,18.36,0,0,0,7.39,0,18.06,18.06,0,0,0,3.45-1.07,18.27,18.27,0,0,0,3.11-1.69,18.3,18.3,0,0,0,5-4.95,18.36,18.36,0,0,0,2.76-6.56A18.34,18.34,0,0,0,514,153.32Zm-16.89-8.52a15.6,15.6,0,0,1,10.34,3.91c0,0.06-2.27,3.45-8.18,5.67a79.57,79.57,0,0,0-5.85-9.14A15.66,15.66,0,0,1,497.12,144.79Zm-3.75.45h0Zm-2.93,1a93.67,93.67,0,0,1,5.82,9,57.93,57.93,0,0,1-14.46,1.91A15.67,15.67,0,0,1,490.44,146.29Zm-5,24.63a15.6,15.6,0,0,1-4-10.47c0-.17,0-0.33,0-0.49a57.41,57.41,0,0,0,16.08-2.23c0.45,0.88.88,1.77,1.27,2.66l-0.62.19c-8.45,2.73-12.74,10.33-12.74,10.33h0Zm11.65,5.2a15.59,15.59,0,0,1-9.78-3.43l-0.2-.16,0.2,0.16,0.15,0.11s3-6.55,12.29-9.78l0.11,0a65.16,65.16,0,0,1,3.34,11.89A15.61,15.61,0,0,1,497.12,176.12Zm8.75-2.67a67.68,67.68,0,0,0-3-11.18,22.71,22.71,0,0,1,9.76.68A15.66,15.66,0,0,1,505.87,173.44Zm-4-13.66-0.34-.81c-0.33-.77-0.68-1.53-1-2.27,6.18-2.52,8.69-6.15,8.72-6.2a15.6,15.6,0,0,1,3.56,9.79A36.22,36.22,0,0,0,501.87,159.78Z" transform="translate(-478.79 -142.12)"/></svg>